<svg width="20" height="20" viewBox="0 0 20 20" fill="none" xmlns="http://www.w3.org/2000/svg">
    <path fill-rule="evenodd" clip-rule="evenodd" d="M18 0H6C4.9 0 4 0.9 4 2V14C4 15.1 4.9 16 6 16H18C19.1 16 20 15.1 20 14V2C20 0.9 19.1 0 18 0ZM1 4C0.45 4 0 4.45 0 5V18C0 19.1 0.9 20 2 20H15C15.55 20 16 19.55 16 19C16 18.45 15.55 18 15 18H3C2.45 18 2 17.55 2 17V5C2 4.45 1.55 4 1 4ZM7.83204 11C7.46746 11 7.14617 10.9278 6.86817 10.7835C6.59473 10.6392 6.38054 10.4344 6.22559 10.169C6.0752 9.90363 6 9.59637 6 9.24721V7.73883C6 7.39432 6.0752 7.09171 6.22559 6.83101C6.38054 6.56564 6.59473 6.3608 6.86817 6.21648C7.14617 6.07216 7.46746 6 7.83204 6C8.19663 6 8.51564 6.06983 8.78908 6.2095C9.06708 6.34451 9.28127 6.53771 9.43166 6.78911C9.58661 7.03585 9.66409 7.32216 9.66409 7.64804L9.66397 7.65245C9.66192 7.6925 9.62216 7.72486 9.58206 7.72486L8.61135 7.78771C8.55666 7.78771 8.52931 7.7621 8.52931 7.71089C8.52931 7.49208 8.46551 7.3175 8.33791 7.18715C8.2103 7.0568 8.04168 6.99162 7.83204 6.99162C7.62241 6.99162 7.45379 7.05912 7.32618 7.19413C7.19858 7.32449 7.13477 7.49674 7.13477 7.71089V9.29609C7.13477 9.51024 7.19858 9.6825 7.32618 9.81285C7.45379 9.9432 7.62241 10.0084 7.83204 10.0084C8.04168 10.0084 8.2103 9.9432 8.33791 9.81285C8.46551 9.6825 8.52931 9.51024 8.52931 9.29609C8.52931 9.24488 8.55666 9.21927 8.61135 9.21927L9.58206 9.26816L9.58412 9.26818C9.62284 9.2689 9.66409 9.29926 9.66409 9.33799C9.66409 9.66853 9.58661 9.9595 9.43166 10.2109C9.28127 10.4623 9.06708 10.6578 8.78908 10.7975C8.51564 10.9325 8.19663 11 7.83204 11ZM11.9772 11C11.599 11 11.2685 10.9395 10.986 10.8184C10.708 10.6927 10.4915 10.5158 10.3366 10.2877C10.1862 10.0549 10.111 9.78724 10.111 9.48464V9.35195C10.111 9.32868 10.1178 9.31006 10.1315 9.29609C10.1497 9.27747 10.1702 9.26816 10.193 9.26816H11.1432C11.1856 9.26816 11.2249 9.30884 11.2253 9.35125L11.2253 9.35195V9.43575C11.2253 9.58939 11.3004 9.72439 11.4508 9.84078C11.6012 9.95251 11.804 10.0084 12.0592 10.0084C12.2598 10.0084 12.4079 9.96415 12.5036 9.8757C12.5993 9.78724 12.6471 9.68482 12.6471 9.56844C12.6471 9.47533 12.6175 9.40084 12.5583 9.34497C12.5036 9.28445 12.4284 9.23557 12.3327 9.19832C12.237 9.15642 12.0889 9.10056 11.8883 9.03073L11.8823 9.02771C11.8552 9.01456 11.8263 9.00586 11.7974 8.99716C11.7751 8.99042 11.7527 8.98367 11.7311 8.97486C11.4349 8.87709 11.1774 8.77235 10.9587 8.66061C10.7399 8.54423 10.553 8.38594 10.3981 8.18575C10.2432 7.98091 10.1657 7.72952 10.1657 7.43156C10.1657 7.14292 10.2386 6.89153 10.3844 6.67737C10.5348 6.45857 10.7422 6.29097 11.0065 6.17458C11.2708 6.05819 11.5693 6 11.902 6C12.2529 6 12.5674 6.06518 12.8454 6.19553C13.1279 6.32588 13.349 6.50978 13.5085 6.74721C13.668 6.98464 13.7477 7.25698 13.7477 7.56425V7.66201C13.7477 7.68529 13.7386 7.70624 13.7204 7.72486C13.7067 7.73883 13.6885 7.74581 13.6657 7.74581H12.7155C12.6716 7.74581 12.6339 7.70699 12.6335 7.66307L12.6335 7.66201V7.61313C12.6335 7.45019 12.5628 7.30587 12.4216 7.18017C12.2803 7.05447 12.0911 6.99162 11.8542 6.99162C11.6764 6.99162 11.5374 7.02886 11.4372 7.10335C11.3369 7.17784 11.2868 7.28259 11.2868 7.4176C11.2868 7.52002 11.3187 7.60614 11.3825 7.67598C11.4463 7.74115 11.5443 7.804 11.6764 7.86452C11.8131 7.92039 12.0205 7.99488 12.2985 8.08799C12.6175 8.19972 12.8659 8.29749 13.0436 8.38128C13.2214 8.46508 13.3877 8.60242 13.5427 8.79329C13.7022 8.97952 13.7819 9.22626 13.7819 9.53352C13.7819 9.83613 13.7067 10.0968 13.5563 10.3156C13.4059 10.5345 13.194 10.7044 12.9206 10.8254C12.6517 10.9418 12.3372 11 11.9772 11ZM15.3764 10.8743C15.39 10.9209 15.4196 10.9441 15.4652 10.9441H16.5043C16.5499 10.9441 16.5795 10.9209 16.5932 10.8743L17.9945 6.15363C18.0036 6.1257 18.0014 6.10242 17.9877 6.0838C17.974 6.06518 17.9535 6.05587 17.9262 6.05587H16.9008C16.8506 6.05587 16.8187 6.07914 16.8051 6.1257L16.0326 9.30307C16.028 9.31704 16.0212 9.32402 16.0121 9.32402C16.003 9.32402 15.9961 9.31704 15.9916 9.30307L15.2055 6.1257C15.1918 6.07914 15.1599 6.05587 15.1097 6.05587H14.0638C14.0252 6.05587 14.0015 6.06968 13.9926 6.09732C13.9868 6.11551 13.9909 6.13508 13.9955 6.15363L15.3764 10.8743Z" fill="#2266EA"/>
</svg>