<svg width="60" height="48" viewBox="0 0 60 48" fill="none" xmlns="http://www.w3.org/2000/svg">
    <path d="M48.8235 11.9296H27.1765L22.8706 6.81194C22.7257 6.63782 22.5087 6.54017 22.2824 6.54723H4.81765C2.15118 6.56664 0 8.7337 0 11.4002V42.8766C0.00323529 45.5522 2.17147 47.7205 4.84706 47.7237H48.8235C51.4991 47.7205 53.6673 45.5522 53.6706 42.8766V16.7766C53.6673 14.1011 51.4991 11.9328 48.8235 11.9296Z" fill="#2266EA"/>
    <path d="M55.1818 5.6581H33.5289L29.223 0.540454C29.0782 0.366337 28.8611 0.26869 28.6348 0.275749H11.176C8.75654 0.279719 6.71066 2.06707 6.38184 4.46398H22.3054C23.1404 4.46193 23.9332 4.83045 24.4701 5.46987L28.1465 9.84045H48.823C52.6473 9.84692 55.746 12.9456 55.7524 16.7699V41.4052C58.1771 41.1027 59.9976 39.0428 59.9995 36.5993V10.4993C59.9932 7.83737 57.8436 5.67751 55.1818 5.6581Z" fill="#2266EA"/>
</svg>